<svg id="Calque_1" data-name="Calque 1" xmlns="http://www.w3.org/2000/svg" viewBox="0 0 942.5 811.26"><defs><style>.cls-1{fill:black;stroke:white;stroke-miterlimit:10;stroke-width:8px;}@media(prefers-color-scheme:dark){.cls-1{fill:white}}</style></defs><title>favicon3</title><path class="cls-1" d="M1031.18,375.31l-8.4-13.07-3.59-7.32-5.2-10.4L1010.13,334l-1.86-9.06-.79-7.45-6.5-18.75-5.51-15.64-4.26-14.93-4.61-16.89-3.55-10.84-3.74-10.12-4.09-7.46L970.77,215l-3.38-3-7.81-4.45-6.22-1.78-7.29,1.26-4.61,2.67-3,4.45L937,220.56l-.54,8,1.6,10.67,2.49,8.17,4.26,12.09,3.38,11.73,3.55,12.09,3.9,10,3.39,9.42,2.67,8.53,5,14,1.06,8.16.19,3.74-5.87,2-5.86-3.55L947,329.69l-8.54-7.45-11.55-8.71-8.71-11.19-4.8-12.26-3.19-8.35-5-7.64-5.87-9.25-6.93-11.54-3.19-8.17-3.39-10.48-6.57-16.27-6.94-19.73-3.19-16.26-3.74-14.14-2.92-13.86-2.4-10.67-2.68-12-1.85-13.08-3.2-6.13-5.59-4.81L839,103.19l-8.27-.54L825.66,104l-5.33,5.59-2.13,7.21-.79,14.38V144l2.13,15.72,3.74,10.4s3.19,11.74,4,13.86,3.19,12.8,3.19,12.8l2.92,8.79,3.47,13.87a50.85,50.85,0,0,0,1.34,6.14c.54,1.33,4,10.12,4,10.12l3.2,9.86,3.19,8.54,2.13,4.8s1.61,5.87,2.4,8a54.49,54.49,0,0,1,1.61,7.2l-2.4,1.61-8.27-2.4-8.27-2.68-9.85-5.86-8-3.74-8.79-4.26L793.92,249l-7.72-5.87-9.34-4-9.06-4.8-7.72-8.79L750,210.64,743,196.5l-9.06-20-3.74-9.06-7.73-17.06-4.8-12.25L712.89,124l-4.8-14.39-2.93-14.13-3.73-12.8L697.17,71.5l-4-5.33-4.8-7.2-3.74-2.67L677.18,55l-7.72-.54-5.32,3.46-2.41,3.2-1.6,10.13,1.33,14.92,1.34,15.2,1.86,5.6,5.86,15.2,3.2,9.33,3.46,9.86,2.68,9.6,3.19,6.66,5.08,9.34,2.67,7.72,6.14,10.67,3.19,5.6,3.2,5.32,2.13,4.8s.27,2.68.27,4.26-2.13,2.93-2.13,2.93l-6.93-.55-10.4.8-17.85-3.2-12.26-.79-11.46-2.13-13.07-2.13L606,197l-15.72-2.57-12.62-.9-13.32-.19L554.25,193l-16.16-.9h-11.9l-1.61-4.45.35-6.22,3.91-6,4.26-7.81,5-8.54,3-6,4.62-8.35,4.8-9.25,2-8.54,3.2-11.73.89-6.58,1.61-6.74,1.07-8.54L564,71.71,564.5,56l1.86-14.65L563.43,31.2,561,24l-5.32-3.74-5.87-1.61-7.2,1.61-3.59,2.53-2,4.65-1.33,6.14-.8,5.2-1.06,5.07-.94,4.26-1.46,4-.8,3.47-.54,4-.79,5.86L528,72.88l-1.19,5.2-2,5.32-2,5.2-1.86,5.32-5.2,12.93L513.05,113l-1.33,2.92-1.86,4.26v3.19l-3.55,3.47-2.13,6.3-3.91,8.54-3.11,5.43-3.82,6.22-3.9,6.31-2.57,3.82-.79,1.61-3.91,7.81-6,6.39-7.29,4.61L463,187.78l-6.74,4.8L450,197l-11.74,4.44-6,1.42-7.64,1.26-5,1.41-8.35,1.07H407l-6.23,2.13h-3.55l-4.25.9h-5.16l-7.46.89h-8.7v-5.7l1.06-3.9,1.25-2.67,1.61-2.67,3-4.26a26.59,26.59,0,0,0,1.61-2.68,24.93,24.93,0,0,1,1.25-2.31l4.09-6.58,1.26-2.84,2.31-5.33.55-2.31,3.55-10.84,2.84-6.74,1.25-2.68a22.52,22.52,0,0,1,1.06-4.44,45.65,45.65,0,0,0,1.42-4.62l2.49-5.15,2-4.62,1.42-4.09,1.06-4.62.9-3.9,1.61-7.1,1.06-4.09,1.07-4.26,1.77-2.84.9-3.19a9.9,9.9,0,0,0-.19-4.1,15,15,0,0,0-2-5L410,83l-1.78-2.48-4.8-5.33-4.09-3-1.78-.71-4.09-1.25-7.81.36-3,2.13-1.78,2.13L379,78l-1.42,2.84L376,84.36l-1.78,3s-2.48,4.61-2.48,5.51a32.36,32.36,0,0,1-1.61,5l-.9,5-1.42,4.61L366.39,111l-1.6,5.16L363,122.38l-1.25,4.09-2,5-2,5.33L356.41,143l-2.84,8v3.19l-1.6,3.91-1.07,4.8-.9,2.67-1.42,3.38v2.13l-2.83,2.67-2.13,2.84-2,2.68-3.73,5.68s-2,3-2.49,3.9-4.8,6-4.8,6l-6.08,8.59-4.8,5.59L316.41,212l-3.59,4.53-3.86,4-3.07,3.34-3.2,4-2.92,3.59-1.34,2.68-3.46,4.4L292.69,241l-2.4,2.27-3.47,2.28-3.59,2-5.87,3.2-7.32,4-6,3.73L260.58,260l-5.6,2-4.65,2.4-4.41,2.13-5.87,1.19-4.65,1.07L231,267.28l-2.27-.54-1.19-3.46.66-4.54,1.47-4,2.27-5.2,1.19-4.41,2-5.86L238.2,234l1.6-2.8,2.13-4.92,1.61-3.87,2.4-7.87,1.07-5.07,1.85-7.33-.12-1.73s0-4.53-.27-7.06a63.31,63.31,0,0,0-1.74-7.6l-.79-3.86-2.13-2.53-3.34-3.86-2.4-1.74-5.72-2.92-4.8-.94-3.47.27-2.53,1.61-3.73,3.19-1.07,2.13-4.36,9.73-2.67,4.54-2.41,5.95-2.56,8.16-2.93,7.1-5.32,13.15-3.11,6.66-4.26,8.54-4.26,8-3.11,6.39-7.37,14.38-3.87,4.41-3.06,5.47-4.93,6.14L158,290.75l-4.93,4.81-4.66,4.25-5.86,5.2-12.8,10.92-4.26,3.47-4.14,2.67-5.59,4-5.87,6.87-2.53,3.8-3.4,3.8-1.79,3-.8,3.53v3.25l1.74,3.13,2.71,11.3,4.09,9.06L113,380l2,4.89,3,6.49,2,4.61,6,13.24,3.9,6.22,3.74,6.58,3,6.74,4.26,8.71,3.38,4.62,3.9,6.93,3.2,6.22,4.61,7.1,3.38,4.26,3.2,5.32,2.67,4.8,1.5,7.56,2.41,7.73,2.92,9.85L175,512.49l4.26,13.6,2.13,9.06,2.4,6.39,2.13,7.2,1.34,6.39,1.86,6.93.27,8,1.06,12,.54,11.34,1.07,4.8,1.34,2.93,1.73,2.52,3.47,3.59,3.73,2.4,2.8,1.34h12.13l3.59-.94,3.59-3.47,3.47-3.46,1.61-2.92,1.61-4.14.79-4.53.23-24-1.25-6.14-1.7-9.33-2.31-9.86-1.42-7.37-5.29-17.1-5.19-12.26-3.47-7.72-3.86-7.33L206,485l-1.86-4.93.54-2.13,1.07-3.2,3.07-1.19,1.46.4,5.07,1.07,4,2.27,4.93,3.59,4.8,4.41,4.8,4.26,5.87,4.8,8.39,6.26,7.21,6.81,9.06,9.33,4.93,5.47,6.39,9.73,6,7.21,3.46,5.07,13.91,20.44,6,11.74,5.33,10,4.26,14.21,7.37,17.77,3.28,8.17,3.9,8.54,3.19,6.74,5,14.22,2.84,9.25,2.49,16.7,2.13,6.39,1.77,15.29v7.8l.84,12.11,2.07,5.93,2.27,2.59,2.53,2.4,4.74,2.93,3.53.94,7.26-.34,6.27-1.67,2.58-4.07,2.47-4.07,2.86-8.39-.56-28.73-1.15-6.66-1.07-9.78-2.48-11.1-.9-5.24-5.16-29.51-4.61-12.61-4.45-8.35-3.38-8.54-3.38-11.19-2.68-5.51-2.13-5.16-1.6-5.68-2-6.74,2.68-2.49,5-.71,3.91.9,5,1.25,9.25,2.67,6.39,3,6.57,2.84,8,2.49,8.71,2.48,10,1.78,3.9.71,5.33,1.42,5,1.25,2.67,1.61,4.8,3.9,3.9,5.32L444,605.05l1.61,4.8,1.61,3,1.77,3,4.45,9.77,3.74,6.93,4.8,8.9,5.87,9.25,3.19,5.86L477.39,671l4.09,5,3.2,6,2.48,7.64L492,701.2l5.16,9.69,3.47,7.72,2.67,7.73,2.13,10.4,2.13,5.07.54,5.33.8,6.93-.8,8.27v6.39l-.27,6.38-1.34,6.66-.54,5.08.27,3.46,1.86,5.87,2.67,4,3.2,6.93,5.32,2.92h14.41l6.14-3.19,1.61-6.93,2.92-12.26,2.92-9.85,1.61-9.06,1.34-11.2V738.07l-3.2-12-2.13-7.2-4.8-13.07-3.2-11.2-5.59-10.39-6.93-14.66-6.39-13.32-6.66-11.47-4.8-8-5.08-9.06-5.87-9.86s-3.19-8-3.19-8.79-.54-4.8-.54-4.8l2.67-4L503,599l13.86,2.41,10.92.54,9.06.79,9.61,1.07,14.66.79,23.72.27,14.65-.27h22.14l11.73-.54h5.87l4.26-1.07,3.73-.54,6.39-.27H660l2.4,2.67v2.67l-3.46,5.6-1.61,4.26L652,627.45,646.14,636l-3.2,8-3.19,6.66-2.67,6.93-3.2,8.79L632,674.1,630.16,680l-1.85,8.79-1.61,7.72-1.86,9.06-2.4,10.4-1.61,5.33-1.06,10.92-3.2,14.65-1.06,11.47-2.13,10.92-1.86,6.66-.27,5.59-.8,10.13V806l2.41,8,7.45,6.39,7.72,1.34,6.14-1.34,4.26-2.67,4.26-5.08,3.74-6.93,1.06-8.27.8-15.45,2.4-7.45,1.86-20,4.8-14.93,5.07-14.93,8.79-28.25L675,678.59l6.93-13.2,4.53-14.26,7.33-9.19,20.65-25.53L724,603.8l5.15-5.87,4.89-3.74,6.39-2.84L746,588.6l7.46-2.05,8.35-2.84,8.08-3.19,9.15-3.64,6-3.46,6.49-3.82,4.45-1.42,4.26-1.51,3.11,1.61,2,1.61,1.78,2.92-.63,4.89-.79,4.36-1.07,5.16-1.6,5.6-1.26,5.78-1.06,5.32-1.86,5.79-3,8.08-2.13,6.85-2.57,8.16-2.56,6.85L782.9,663l-2.49,6.75L779,676.33l-.89,7.29-.9,7.29-2,5.68-1.06,6.74-1.42,7.81-.54,10.67,1.25,4.45,3.74,7.64,4.26,5.32,9.6,2.32,8.16-2,4.81-2.32,8.35-5.87,3.38-9.25,3.2-10.67,2.48-18.12,4.09-14.57,2-16.35,3.9-16.52,3.19-12.09,4.62-15.28,4.3-16.16,6-15.2,5.08-10.8,6.66-11.86,11.19-14.93,11.73-12.65,7.6-8.79L909.36,516l8-6.93,7.45-6.14,9.86-4.66,4.93-2,2.27,1.46,1.19,4.26L942,507.34l-1.46,5.86-1.86,8.12-2.53,11.34-2.67,11.07-1.73,8.66s-1.86,9.61-1.86,10-2.4,19.34-2.4,19.34l-2.13,22.38-.94,8.54.54,11.59,1.19,9.19,2,8,3.86,4.41,6.14,5.2,6,.12,8.39-1.33,7.87-4.93,3.74-6.26,2.13-11.07,1.61-9.19,1.86-13.59,3.07-12.65,2.79-25.85,2-17.19,7.29-24.7,6.22-18.83,5-14.93,7.81-17.06,4.8-12.61,8.54-15.64,6.58-13.86,5.86-13.68,1.61-5,3.07-12.44,1.46-9.33V382.1ZM496.66,286l-9.25,14.22-10.12,21.51-3.91,16.16-4.61,18.31L465,387.59l.35,35.73-.71,26.47,2.84,17.42,2,14.21,3.19,15.29,3,13.86,3.55,13,3.9,10.83,3.39,6.23-.55,6.22-1.06,3.74H473.38l-20.61-8-18.31-2.49H416.34l-20.8-5.67-15.64-5.52-14-5.86-9.77-4.62L344.91,514l-15.28-6.57-11.2-6-14.74-8.54-14-6.93-11-14.93-13.51-10.56-12.53-7.21-8.79-2.92-9.85-4-13.32-10.92-16.52-12.8L187.6,406.82l-12.52-14.13-12.53-11.47-6.39-7.72v-6.66l2.92-5.87,10.4-7.72,10.13-8.54,16.78-6.94,25.06-14.65s21.59-12,22.38-12.53,15.2-8.54,15.2-8.54l9.61-6.39,15.72-6.39,10.92-4.53,18.12-4.26,16.52-6.93,22.13-9.06,23.72-8.27,23.45-5.87,21.86-3.74,25.85-4.8,22.13-3.74,16.51-2.4,21.32-1.6h20.26l4,2.67,1.19,2.52-.66,5.2-4.54,4.14-4,4.8-12.8,14ZM641.13,476.6,635.45,488l-4.26,10.67-11.38,16-5,8.54-3.55,6L601,537l-9.25,5.32-11.38,6.39-5,5.32-6.93,4.62h-9.07l-5-3.2-6-7.1L540.93,542l-6-7.1-5.68-7.81-5.32-9.61-4.62-13.15-2.13-9.25-2.84-9.25-1.77-13.15-1.07-7.81-1.77-8.54v-61l2.84-17.23v-10L514,360l2.13-10,4.26-12.44L526,323l6.35-9.25,7.51-12.09,6-8.54L551.6,285l6.38-5.68,10.49-8.89,3.38-5.68,7.45-10,6-3.91,8.16-4.26,9.33,1.26,4.26,2.13,8.54,6.66,4.53,4.26,4.26,6.93,4,8.27,7.45,9.6,7.21,8,10.12,17.6,2.13,7.1,2.84,7.81,1.42,9.25,2.84,8.89L663.84,355l.71,9.25L666,376.73v12.45l-2.84,11v18.48l-5.68,16v8.53L650,456l-5,12.45Zm341-62.89-4.26,4.8-12.26,12.8-9.6,6.94-15.72,6.38S924.84,455,924,455.55s-14.13,5.87-14.13,5.87l-17.06,12-9.33,5.32L872,485.93,864.31,491l-12.8,8.27-10.67,5.59-15.2,8L808,520.32l-17.86,6.14-17.6,7.73s-5.86,3.19-6.66,3.19-15.45,3.74-15.45,3.74l-16.26,4.26-13.32,5.32-13.6,1.61-18.39,4-8.27,2.4H667L654.24,560l-6.39-1.34-1.61-3.47v-5.07l2.13-4.53,3.74-5.87,5.32-7.72,5.33-8.27,5.07-6.14,2.67-5.87,6.94-8.27,4.26-6.66,1.85-5.32,6.39-12.8,2.13-7.45,5.6-11.74,1.86-4.09,3.9-10.13s3-11.19,3.2-12.25,3-10.67,3-10.67l-.19-15.81L708.92,387l-.48-26-.54-6.14s-3.47-10.52-3.59-10.92-2.67-12.13-2.67-12.13l-2.13-8.54-3.74-8.54-2-10.39s-3.34-6.81-4-7.87-3.07-6.27-3.35-6.81-4.25-6.81-4.25-6.81l-3.2-5.47-5.32-7.06-6-5.86-2.27-6.94v-3.73l4.65-2.28h9.19l11.34.94,11.34,1.73,11.58,5.87L730,266.74l10.4,4.14,11.86,5.47,9.06,4,10.4,4.26,10.67,3.87,7.6,2.79,6.39,1.07,8.26,4.13,6.94,5.33,10.79,9.73,4.41,3.59,10.92,6.66,10.39,4.8,9.07,5.33,7.72,3.59,10.8,5.2,5.19,2,10.53,5.07L903.54,356l11.73,7.21,27.59,12.25,6.93,4.26,12.8,6.14,6.93,5.07,7.2,4.89,8.79,8.16Z" transform="translate(-97.37 -14.53)"/></svg>
