<?xml version="1.0" encoding="UTF-8" standalone="no"?>
<!-- Generator: Adobe Illustrator 24.0.0, SVG Export Plug-In . SVG Version: 6.00 Build 0)  -->

<svg
   version="1.1"
   id="Calque_1"
   x="0px"
   y="0px"
   viewBox="0 0 1036.3001 348.44051"
   xml:space="preserve"
   sodipodi:docname="myosis.svg"
   inkscape:version="1.1.2 (0a00cf5339, 2022-02-04)"
   width="1036.3"
   height="348.44052"
   xmlns:inkscape="http://www.inkscape.org/namespaces/inkscape"
   xmlns:sodipodi="http://sodipodi.sourceforge.net/DTD/sodipodi-0.dtd"
   xmlns="http://www.w3.org/2000/svg"
   xmlns:svg="http://www.w3.org/2000/svg"><defs
   id="defs896" /><sodipodi:namedview
   id="namedview894"
   pagecolor="#ffffff"
   bordercolor="#666666"
   borderopacity="1.0"
   inkscape:pageshadow="2"
   inkscape:pageopacity="0.0"
   inkscape:pagecheckerboard="0"
   showgrid="false"
   inkscape:zoom="0.99180425"
   inkscape:cx="450.18964"
   inkscape:cy="119.47922"
   inkscape:window-width="1920"
   inkscape:window-height="1050"
   inkscape:window-x="0"
   inkscape:window-y="0"
   inkscape:window-maximized="1"
   inkscape:current-layer="Calque_1" />
  <style
   type="text/css"
   id="style877">
    .st0 {
      fill: #ffffff;
    }
  </style>
  
  <path
   class="st0"
   d="m 671.9,169.74053 -3.4,-5.3 -1.4,-2.9 -2.1,-4.2 -1.6,-4.2 -0.7,-3.6 -0.3,-3 -2.6,-7.5 -2.2,-6.3 -1.7,-6 -1.9,-6.8 -1.4,-4.4 -1.5,-4.1 -1.6,-3 -1.8,-3.1 -1.4,-1.2 -3.1,-1.8 -2.5,-0.7 -2.9,0.5 -1.9,1.1 -1.2,1.8 -0.6,2.6 -0.2,3.2 0.6,4.3 1,3.3 1.7,4.9 1.4,4.7 1.4,4.9 1.6,4 1.4,3.8 1.1,3.4 2,5.6 0.4,3.3 0.1,1.5 -2.4,0.8 -2.4,-1.4 -3.7,-2.4 -3.4,-3 -4.6,-3.5 -3.5,-4.5 -1.9,-4.9 -1.3,-3.4 -2,-3.1 -2.4,-3.7 -2.8,-4.6 -1.3,-3.3 -1.4,-4.2 -2.6,-6.5 -2.8,-7.9 -1.3,-6.5 -1.5,-5.7 -1.2,-5.6 -1,-4.3 -1.1,-4.8 -0.7,-5.3 -1.3,-2.5 -2.2,-1.9 -3.1,-1.8 -3.3,-0.2 -2,0.5 -2.1,2.2 -0.9,2.9 -0.3,5.8 v 5.1 l 0.9,6.3 1.5,4.2 c 0,0 1.3,4.7 1.6,5.6 0.3,0.9 1.3,5.1 1.3,5.1 l 1.2,3.5 1.4,5.6 c 0,0 0.3,1.9 0.5,2.5 0.2,0.5 1.6,4.1 1.6,4.1 l 1.3,4 1.3,3.4 0.9,1.9 c 0,0 0.6,2.4 1,3.2 0.3,0.9 0.6,2.9 0.6,2.9 l -1,0.6 -3.3,-1 -3.3,-1.1 -4,-2.4 -3.2,-1.5 -3.5,-1.7 -6.1,-3.1 -3.1,-2.4 -3.8,-1.6 -3.6,-1.9 -3.1,-3.5 -4.1,-6 -2.8,-5.7 -3.6,-8 -1.5,-3.6 -3.1,-6.9 -1.9,-4.9 -1.9,-5.7 -1.9,-5.8 -1.2,-5.7 -1.5,-5.1 -1.7,-4.5 -1.6,-2.1 -1.9,-2.9 -1.5,-1.1 -3,-0.5 -3.1,-0.2 -2.1,1.4 -1,1.3 -0.6,4.1 0.5,6 0.5,6.1 0.7,2.2 2.4,6.1 1.3,3.8 1.4,4 1.1,3.9 1.3,2.7 2,3.8 1.1,3.1 2.5,4.3 1.3,2.2 1.3,2.1 0.9,1.9 c 0,0 0.1,1.1 0.1,1.7 0,0.6 -0.9,1.2 -0.9,1.2 l -2.8,-0.2 -4.2,0.3 -7.2,-1.3 -4.9,-0.3 -4.6,-0.9 -5.3,-0.9 -10.3,-1.3 -6.3,-1 -5.1,-0.4 -5.4,-0.1 -4.1,-0.1 -6.5,-0.4 h -4.8 l -0.6,-1.8 0.1,-2.5 1.6,-2.4 1.7,-3.1 2,-3.4 1.2,-2.4 1.9,-3.4 1.9,-3.7 0.8,-3.4 1.3,-4.7 0.4,-2.6 0.6,-2.7 0.4,-3.4 1.9,-8.7 0.2,-6.3 0.7,-5.9 -1.2,-4.1 -1,-2.9 -2.1,-1.5 -2.4,-0.6 -2.9,0.6 -1.4,1 -0.8,1.9 -0.5,2.5 -0.3,2.1 -0.4,2 -0.4,1.7 -0.6,1.6 -0.3,1.4 -0.2,1.6 -0.3,2.4 -0.5,3 -0.5,2.1 -0.8,2.1 -0.8,2.1 -0.7,2.1 -2.1,5.2 -1.1,2.5 -0.5,1.2 -0.7,1.7 v 1.3 l -1.4,1.4 -0.9,2.5 -1.6,3.4 -1.3,2.2 -1.5,2.5 -1.6,2.5 -1,1.5 -0.3,0.6 -1.6,3.1 -2.4,2.6 -2.9,1.9 -2.4,1.6 -2.7,1.9 -2.5,1.8 -4.7,1.8 -2.4,0.6 -3.1,0.5 -2,0.6 -3.4,0.4 h -1.7 l -2.5,0.9 h -1.4 l -1.7,0.4 h -2.4 l -3,0.4 h -1.4 -2.1 v -1.3 -1.4 l 0.4,-1.6 0.5,-1.1 0.6,-1.1 1.2,-1.7 c 0,0 0.6,-0.9 0.6,-1.1 0.1,-0.2 0.5,-0.9 0.5,-0.9 l 1.6,-2.6 0.5,-1.1 0.9,-2.1 0.2,-0.9 1.4,-4.4 1.1,-2.7 0.5,-1.1 c 0,0 0.1,-1.1 0.4,-1.8 0.3,-0.7 0.6,-1.9 0.6,-1.9 l 1,-2.1 0.8,-1.9 0.6,-1.6 0.4,-1.9 0.4,-1.6 0.6,-2.9 0.4,-1.6 0.4,-1.7 0.7,-1.1 0.4,-1.3 c 0,0 0.1,-0.5 -0.1,-1.6 -0.2,-1.1 -0.8,-2 -0.8,-2 l -0.8,-1.6 -0.7,-1 -1.9,-2.1 -1.6,-1.2 -0.7,-0.3 -1.6,-0.5 -3.1,0.1 -1.2,0.9 -0.7,0.9 -0.7,1.3 -0.6,1.1 -0.6,1.4 -0.7,1.2 c 0,0 -1,1.9 -1,2.2 0,0.3 -0.6,2 -0.6,2 l -0.4,2 -0.6,1.9 -0.6,1.4 -0.6,2.1 -0.7,2.5 -0.5,1.6 -0.8,2 -0.8,2.1 -0.6,2.5 -1.1,3.2 v 1.3 l -0.6,1.6 -0.4,1.9 -0.4,1.1 -0.6,1.4 v 0.9 l -1.1,1.1 -0.9,1.1 -0.8,1.1 -1.5,2.3 c 0,0 -0.8,1.2 -1,1.6 -0.2,0.4 -1.9,2.4 -1.9,2.4 l -2.4,3.4 -1.9,2.2 -1.3,1.2 -1.4,1.8 -1.6,1.6 -1.2,1.3 -1.3,1.6 -1.2,1.4 -0.5,1.1 -1.4,1.8 -0.9,1 -1,0.9 -1.4,0.9 -1.4,0.8 -2.4,1.3 -2.9,1.6 -2.4,1.5 -1.4,0.6 -2.2,0.8 -1.9,1 -1.8,0.9 -2.4,0.5 -1.9,0.4 -1.8,-0.6 -0.9,-0.2 -0.5,-1.4 0.3,-1.8 0.6,-1.6 0.9,-2.1 0.5,-1.8 0.8,-2.4 1.2,-2.1 0.6,-1.1 0.9,-2 0.6,-1.6 1,-3.2 0.4,-2 0.7,-2.9 -0.1,-0.7 c 0,0 0,-1.8 -0.1,-2.8 -0.1,-1 -0.7,-3.1 -0.7,-3.1 l -0.3,-1.6 -0.9,-1 -1.3,-1.6 -1,-0.7 -2.3,-1.2 -1.9,-0.4 -1.4,0.1 -1,0.6 -1.5,1.3 -0.4,0.9 -1.8,3.9 -1.1,1.8 -1,2.4 -1,3.3 -1.2,2.9 -2.1,5.3 -1.3,2.7 -1.7,3.4 -1.7,3.2 -1.3,2.6 -3,5.8 -1.6,1.8 -1.2,2.2 -2,2.5 -1.8,2 -2,1.9 -1.9,1.7 -2.4,2.1 -5.1,4.4 -1.7,1.4 -1.7,1.1 -2.2,1.6 -2.4,2.8 -1,1.5 -1.4,1.5 -0.7,1.2 -0.3,1.4 v 1.3 l 0.7,1.3 1.1,4.5 1.6,3.6 1.3,2.5 0.8,2 1.2,2.6 0.8,1.9 2.4,5.3 1.6,2.5 1.5,2.6 1.2,2.7 1.7,3.5 1.4,1.9 1.6,2.8 1.3,2.5 1.9,2.9 1.4,1.7 1.3,2.1 1.1,1.9 0.6,3 1,3.1 1.2,4 1.1,4.3 1.7,5.5 0.9,3.6 1,2.6 0.9,2.9 0.5,2.6 0.7,2.8 0.1,3.2 0.4,4.8 0.2,4.6 0.4,1.9 0.5,1.2 0.7,1 1.4,1.4 1.5,1 1.1,0.5 h 2.6 0.9 1.4 l 1.4,-0.4 1.4,-1.4 1.4,-1.4 0.6,-1.2 0.6,-1.7 0.3,-1.8 0.1,-9.7 -0.5,-2.5 -0.7,-3.8 -0.9,-4 -0.6,-3 -2.1,-6.9 -2.1,-4.9 -1.4,-3.1 -1.6,-2.9 -0.6,-2.1 -0.7,-2 0.2,-0.9 0.4,-1.3 1.2,-0.5 0.6,0.2 2,0.4 1.6,0.9 2,1.4 1.9,1.8 1.9,1.7 2.4,1.9 3.4,2.5 2.9,2.7 3.6,3.8 2,2.2 2.6,3.9 2.4,2.9 1.4,2 5.6,8.2 2.4,4.7 2.1,4 1.7,5.7 3,7.1 1.3,3.3 1.6,3.4 1.3,2.7 2,5.7 1.1,3.7 1,6.7 0.9,2.6 0.7,6.1 v 3.1 l 0.3,4.9 0.8,2.4 0.9,1 1,1 1.9,1.2 1.4,0.4 2.9,-0.1 2.5,-0.7 1,-1.6 1,-1.6 1.1,-3.4 -0.2,-11.5 -0.5,-2.7 -0.4,-3.9 -1,-4.5 -0.4,-2.1 -2.1,-11.9 -1.9,-5.1 -1.8,-3.4 -1.4,-3.4 -1.4,-4.5 -1.1,-2.2 -0.9,-2.1 -0.6,-2.3 -0.8,-2.7 1.1,-1 2,-0.3 1.6,0.4 2,0.5 3.7,1.1 2.6,1.2 2.6,1.1 3.2,1 3.5,1 4,0.7 1.6,0.3 2.1,0.6 2,0.5 1.1,0.6 1.9,1.6 1.6,2.1 1.8,4.6 0.6,1.9 0.6,1.2 0.7,1.2 1.8,3.9 1.5,2.8 1.9,3.6 2.4,3.7 1.3,2.4 2.6,5.8 1.6,2 1.3,2.4 1,3.1 1.9,4.6 2.1,3.9 1.4,3.1 1.1,3.1 0.9,4.2 0.9,2 0.2,2.1 0.3,2.8 -0.3,3.3 v 2.6 l -0.1,2.6 -0.5,2.7 -0.2,2 0.1,1.4 0.7,2.4 1.1,1.6 1.3,2.8 2.1,1.2 h 1.5 4.3 l 2.5,-1.3 0.6,-2.8 1.2,-4.9 1.2,-4 0.6,-3.6 0.5,-4.5 v -4.4 -3.4 l -1.3,-4.8 -0.9,-2.9 -1.9,-5.3 -1.3,-4.5 -2.2,-4.2 -2.8,-5.9 -2.6,-5.4 -2.7,-4.6 -1.9,-3.2 -2,-3.6 -2.4,-4 c 0,0 -1.3,-3.2 -1.3,-3.5 0,-0.3 -0.2,-1.9 -0.2,-1.9 l 1.1,-1.6 3.4,-0.5 5.6,1 4.4,0.2 3.6,0.3 3.9,0.4 5.9,0.3 9.5,0.1 5.9,-0.1 h 8.9 l 4.7,-0.2 h 2.4 l 1.7,-0.4 1.5,-0.2 2.6,-0.1 h 2.6 l 1,1.1 v 1.1 l -1.4,2.2 -0.6,1.7 -2.1,4.1 -2.4,3.4 -1.3,3.2 -1.3,2.7 -1.1,2.8 -1.3,3.5 -0.7,3.1 -0.7,2.4 -0.7,3.5 -0.6,3.1 -0.7,3.6 -1,4.2 -0.6,2.1 -0.4,4.4 -1.3,5.9 -0.4,4.6 -0.9,4.4 -0.7,2.7 -0.1,2.2 -0.3,4.1 v 2.8 3 l 1,3.2 3,2.6 3.1,0.5 2.5,-0.5 1.7,-1.1 1.7,-2 1.5,-2.8 0.4,-3.3 0.3,-6.2 1,-3 0.7,-8 1.9,-6 2,-6 3.5,-11.4 1.5,-7.2 2.8,-5.3 1.8,-5.7 2.9,-3.7 8.3,-10.3 3.9,-5.1 2.1,-2.4 2,-1.5 2.6,-1.1 2.2,-1.1 3,-0.8 3.4,-1.1 3.2,-1.3 3.7,-1.5 2.4,-1.4 2.6,-1.5 1.8,-0.6 1.7,-0.6 1.3,0.6 0.8,0.6 0.7,1.2 -0.3,2 -0.3,1.8 -0.4,2.1 -0.6,2.2 -0.5,2.3 -0.4,2.1 -0.7,2.3 -1.2,3.2 -0.9,2.8 -1,3.3 -1,2.8 -2.3,9.4 -1,2.7 -0.6,2.6 -0.4,2.9 -0.4,2.9 -0.8,2.3 -0.4,2.7 -0.6,3.1 -0.2,4.3 0.5,1.8 1.5,3.1 1.7,2.1 3.9,0.9 3.3,-0.8 1.9,-0.9 3.4,-2.4 1.4,-3.7 1.3,-4.3 1,-7.3 1.6,-5.9 0.8,-6.6 1.6,-6.6 1.3,-4.9 1.9,-6.1 1.7,-6.5 2.4,-6.1 2,-4.3 2.7,-4.8 4.5,-6 4.7,-5.1 3.1,-3.5 7.1,-4.9 3.2,-2.8 3,-2.5 4,-1.9 2,-0.8 0.9,0.6 0.5,1.7 -0.4,2.1 -0.6,2.4 -0.7,3.3 -1,4.6 -1.1,4.4 -0.7,3.5 c 0,0 -0.7,3.9 -0.7,4 0,0.2 -1,7.8 -1,7.8 l -0.9,9 -0.4,3.4 0.2,4.7 0.5,3.7 0.8,3.2 1.6,1.8 2.5,2.1 2.4,0.1 3.4,-0.5 3.2,-2 1.5,-2.5 0.9,-4.4 0.6,-3.7 0.7,-5.5 1.2,-5.1 1.1,-10.4 0.8,-6.9 2.9,-9.9 2.5,-7.6 2,-6 3.1,-6.9 1.9,-5.1 3.4,-6.3 2.6,-5.6 2.4,-5.5 0.6,-2 1.2,-5 0.6,-3.8 v -3.6 z m -214.8,-36 -3.7,5.8 -4.1,8.6 -1.6,6.5 -1.9,7.4 -1.5,12.6 0.1,14.4 -0.3,10.6 1.1,7 0.8,5.7 1.3,6.1 1.2,5.6 1.4,5.2 1.6,4.4 1.4,2.5 -0.2,2.5 -0.4,1.5 h -4.6 l -8.3,-3.2 -7.4,-1 h -7.3 l -8.4,-2.3 -6.3,-2.2 -5.6,-2.4 -3.9,-1.9 -4.5,-1.8 -6.1,-2.6 -4.5,-2.4 -5.9,-3.4 -5.6,-2.8 -4.4,-6 -5.4,-4.2 -5,-2.9 -3.5,-1.2 -4,-1.6 -5.4,-4.4 -6.6,-5.1 -6.6,-6.3 -5,-5.7 -5,-4.6 -2.6,-3.1 v -2.7 l 1.2,-2.4 4.2,-3.1 4.1,-3.4 6.7,-2.8 10.1,-5.9 c 0,0 8.7,-4.8 9,-5 0.3,-0.2 6.1,-3.4 6.1,-3.4 l 3.9,-2.6 6.3,-2.6 4.4,-1.8 7.3,-1.7 6.6,-2.8 8.9,-3.6 9.5,-3.3 9.4,-2.4 8.8,-1.5 10.4,-1.9 8.9,-1.5 6.6,-1 8.6,-0.6 h 8.1 l 1.6,1.1 0.5,1 -0.3,2.1 -1.8,1.7 -1.6,1.9 -5.1,5.6 z m 58.1,76.7 -2.3,4.6 -1.7,4.3 -4.6,6.4 -2,3.4 -1.4,2.4 -4.1,3.1 -3.7,2.1 -4.6,2.6 -2,2.1 -2.8,1.9 h -3.6 l -2,-1.3 -2.4,-2.9 -3,-2.6 -2.4,-2.9 -2.3,-3.1 -2.1,-3.9 -1.9,-5.3 -0.9,-3.7 -1.1,-3.7 -0.7,-5.3 -0.4,-3.1 -0.7,-3.4 v -4.6 -7.9 -6.6 -5.4 l 1.1,-6.9 v -4 l 0.6,-3.3 0.9,-4 1.7,-5 2.3,-5.9 2.6,-3.7 3,-4.9 2.4,-3.4 2.3,-3.3 2.6,-2.3 4.2,-3.6 1.4,-2.3 3,-4 2.4,-1.6 3.3,-1.7 3.8,0.5 1.7,0.9 3.4,2.7 1.8,1.7 1.7,2.8 1.6,3.3 3,3.9 2.9,3.2 4.1,7.1 0.9,2.9 1.1,3.1 0.6,3.7 1.1,3.6 0.6,4.3 0.3,3.7 0.6,5 v 5 l -1.1,4.4 v 4.3 3.1 l -2.3,6.4 v 3.4 l -3,5.1 -2,5 z m 137,-25.3 -1.7,1.9 -4.9,5.1 -3.9,2.8 -6.3,2.6 c 0,0 -6.2,4.2 -6.5,4.4 -0.3,0.2 -5.7,2.4 -5.7,2.4 l -6.9,4.8 -3.8,2.1 -4.6,2.9 -3.1,2 -5.1,3.3 -4.3,2.2 -6.1,3.2 -7.1,3 -7.2,2.5 -7.1,3.1 c 0,0 -2.4,1.3 -2.7,1.3 -0.3,0 -6.2,1.5 -6.2,1.5 l -6.5,1.7 -5.4,2.1 -5.5,0.6 -7.4,1.6 -3.3,1 h -5.5 l -5.1,0.5 -2.6,-0.5 -0.6,-1.4 v -2 l 0.9,-1.8 1.5,-2.4 2.1,-3.1 2.1,-3.3 2,-2.5 1.1,-2.4 2.8,-3.3 1.7,-2.7 0.7,-2.1 2.6,-5.1 0.9,-3 2.2,-4.7 0.7,-1.6 1.6,-4.1 c 0,0 1.2,-4.5 1.3,-4.9 0.1,-0.4 1.2,-4.3 1.2,-4.3 l -0.1,-6.4 -0.2,-7.9 -0.2,-10.4 -0.2,-2.5 c 0,0 -1.4,-4.2 -1.4,-4.4 -0.1,-0.2 -1.1,-4.9 -1.1,-4.9 l -0.9,-3.4 -1.5,-3.4 -0.8,-4.2 c 0,0 -1.3,-2.7 -1.6,-3.2 -0.3,-0.4 -1.2,-2.5 -1.3,-2.7 -0.1,-0.2 -1.7,-2.7 -1.7,-2.7 l -1.3,-2.2 -2.1,-2.8 -2.4,-2.4 -0.9,-2.8 v -1.5 l 1.9,-0.9 h 3.7 l 4.6,0.4 4.6,0.7 4.7,2.4 6.6,2.7 4.2,1.7 4.8,2.2 3.6,1.6 4.2,1.7 4.3,1.6 3.1,1.1 2.6,0.4 3.3,1.7 2.8,2.1 4.3,3.9 1.8,1.4 4.4,2.7 4.2,1.9 3.6,2.1 3.1,1.4 4.3,2.1 2.1,0.8 4.2,2 4.9,3.3 4.7,2.9 11.1,4.9 2.8,1.7 5.1,2.5 2.8,2 2.9,2 3.5,3.3 z"
   id="path881"
   style="fill:#000000;fill-opacity:1" />
  <path
   class="st0"
   d="m 0.5,19.94053 v 11.4 l 0.7,14.7 0.9,13.8 v 15.6 l 0.9,19.7 v 19.7 14.1 l 2.2,20.3 0.7,38.9 0.7,34.8 v 9.1 l 3.1,11.8 2,14.1 1.3,15.4 1.4,7.2 0.9,9.8 1.1,4.3 1.4,8.3 1.4,2.9 1.9,1.4 2,1.1 2.3,0.2 1.9,-0.5 1.6,-0.9 1.8,-1.4 1.3,-2.1 1.1,-2.3 0.2,-2.5 v -2.2 l -1.2,-9.7 -0.4,-7.9 0.2,-3.5 c 0,0 -1.2,-3.6 -1.3,-3.7 -0.1,-0.1 -0.5,-3.8 -0.5,-3.8 0,0 0.4,-2.9 0.5,-4 0.1,-1.1 -1.2,-7.8 -1.2,-8.2 0,-0.4 -0.1,-3.5 -0.1,-3.5 l -1.3,-7.4 -1.5,-6.8 -0.8,-3.1 -0.6,-2.7 v -2.6 l -0.6,-2.7 c 0,0 -1,-2.8 -1,-2.9 0,-0.1 0,-2.2 0,-2.2 l -0.7,-6.2 -0.6,-15.9 -0.3,-10.5 0.3,-14.9 0.2,-10.5 0.1,-9.2 -0.8,-9.1 -0.8,-5.1 -1,-18.9 -0.3,-12.6 0.2,-7.2 -1,-4.4 -0.4,-1.3 -1.4,-11 0.6,-13.9 v -12.3 -6.7 l -0.6,-12.7 0.5,-2.4 1,-1 1.5,0.2 1.5,1.1 1.5,1.9 2.7,3.3 3.3,3.1 2.7,4.6 3,5.1 5.1,4.8 3.8,2.5 3.6,3.8 3.6,4 3.8,4.1 3.5,2.9 2.9,3.2 2.9,3.7 2.8,2.9 2.1,1.8 3.3,0.8 2.9,-0.5 2.2,-1.4 1.8,-1.4 2,-2.5 c 0,0 1.3,-2.9 1.4,-3 0.1,-0.1 2.1,-2.6 2.1,-2.6 0,0 2,-2.7 2.1,-2.8 0.1,-0.1 2.4,-2.7 2.6,-3 0.2,-0.3 3.2,-3.6 3.2,-3.6 0,0 3.8,-2.9 4.1,-3.1 0.2,-0.2 2.8,-2.9 3.2,-3.4 0.4,-0.4 4.3,-2.6 4.3,-2.6 l 5.9,-4.8 2.6,-3.6 3.3,-4.6 c 0,0 2.7,-3.4 2.9,-3.6 0.2,-0.2 3,-3.5 3,-3.5 l 2.5,-2.6 2.2,-2.9 2,-1.7 1.3,-0.7 h 1.2 l 0.7,1.1 0.4,1.6 v 3.9 9.7 12 7.5 l -0.8,2.5 0.1,14.6 v 9.9 l -0.1,4.9 c 0,0 -0.4,2.2 -0.4,2.5 -0.1,0.3 -0.1,3.3 -0.1,3.3 l -0.2,2.1 -0.6,10.6 -0.1,12.4 -0.5,4.5 -0.3,3.2 -0.1,24 0.8,27.4 -0.6,10.7 -0.4,2.2 -0.2,8.8 0.5,3.9 0.2,3.3 -0.2,21.8 0.7,3.1 0.7,4.1 0.7,11.7 v 18.1 l -1,2.7 -0.2,3 0.1,3.6 0.6,2.3 0.2,0.8 2.2,16.4 c 0,0 1.4,4 1.6,4.2 0.1,0.2 1.9,1.9 1.9,1.9 l 1.9,1.1 2.1,1 h 2 l 2.9,-1 c 0,0 1.3,-1.6 1.4,-1.8 0.2,-0.2 1.1,-1.4 1.1,-1.4 0,0 0.7,-1.8 0.7,-2.7 0,-0.9 0.4,-3 0.5,-3.5 0.1,-0.5 -0.4,-9.8 -0.4,-9.8 l -0.3,-4.8 0.1,-4.5 -0.5,-3.6 -0.2,-17.7 -0.5,-11 -0.5,-11.8 -0.2,-5.9 0.4,-8.8 -0.8,-6.6 -0.4,-5.8 -0.1,-11.7 0.5,-6 -0.1,-7.4 v -11.5 l 0.5,-7.1 0.4,-3.6 0.3,-6 -0.5,-3.5 c 0,0 -0.4,-2.6 -0.4,-2.8 0,-0.2 0.4,-2.7 0.5,-3 0.1,-0.3 0.4,-3.9 0.4,-3.9 l 0.2,-3.5 -0.1,-6.2 0.2,-13.7 -0.4,-8.3 c 0,0 0.2,-2.5 0.2,-2.7 0,-0.2 0.7,-3.2 0.7,-3.2 0,0 0.2,-3.1 0.2,-3.3 0,-0.2 0.4,-2.4 0.4,-2.4 l -0.2,-7.6 0.8,-11.6 -0.9,-17 0.9,-12 v -8.1 l -0.6,-8.2 -0.2,-11.3 -0.3,-2.5 c 0,0 -0.7,-7 -0.7,-7.2 0,-0.1 -0.5,-5.2 -0.5,-5.2 l -0.2,-2.7 -0.2,-3.2000001 c 0,0 -0.7,-1.4 -0.7,-1.6 0,-0.2 -0.9,-1.4 -1,-1.5 -0.1,-0.1 -1.2,-1 -1.3,-1 -0.1,-0.1 -1.3,-0.4 -1.4,-0.5 -0.1,-0.1 -1.8,-0.2 -1.8,-0.2 0,0 -1.4,-0.4 -1.5,-0.5 -0.1,0 -1.5,0.2 -1.5,0.2 l -1.6,0.5 -1.3,0.7 -1.8,1.3 -1.5,1.6 -2.4,2.8 -2.2,2.3000001 -1.4,1.5 -10.9,11.6 c 0,0 -3.4,3.1 -4.1,3.9 -0.7,0.7 -4.3,6 -4.3,6 l -3.5,3.1 -3.4,3.6 -3.5,4.5 -3.4,3.3 -4.2,3 -2.1,2.8 -3.7,1.9 -5.2,6 -2.6,2.4 -2.2,1.9 -1.8,0.4 c 0,0 -1.8,-1.5 -2,-1.7 -0.2,-0.2 -1.7,-1.5 -1.8,-1.7 -0.1,-0.2 -2,-2.1 -2.4,-2.5 -0.4,-0.5 -2.6,-2.5 -3.1,-2.9 -0.5,-0.4 -3.6,-3.1 -3.6,-3.1 l -2.7,-2.2 c 0,0 -3.1,-2.8 -3.3,-2.9 -0.2,-0.1 -2.3,-2.7 -2.3,-2.7 0,0 -2.7,-2.7 -2.8,-2.9 -0.1,-0.2 -1.9,-3 -1.9,-3 l -2.6,-2.9 -2.2,-2.3 -1.9,-4.5 -2.3,-2.8 c 0,0 -2,-2.4 -2.6,-3 -0.6,-0.7 -3.3,-3 -3.4,-3.3 -0.1,-0.2 -3.2,-3.3 -3.2,-3.3 l -3,-2.9 c 0,0 -2.8,-2.6 -3.3,-3.1 -0.5,-0.5 -2.8,-2.7 -3,-2.8 -0.2,-0.2 -2.8,-2.3000001 -2.8,-2.3000001 l -2.7,-1.3 c 0,0 -2.4,-0.5 -2.6,-0.5 -0.2,-0.1 -3,0.1 -3,0.1 l -1.8,0.7 -2.1,1.8 -1.3,1.9000001 -0.2,2.5 -0.4,2.2 z"
   id="path883"
   style="fill:#000000;fill-opacity:1" />
  <path
   class="st0"
   d="m 164.2,14.14053 3.6,6 2.4,3.3 2.9,3 3.6,2.8 2.7,4.9 1.3,4.9 2.4,3.1 2.4,4 2.4,2 2.9,2.7 2,3.8 3.4,4.2 3.6,2.9 4.9,1.6 3.3,3.1 1.8,2.5 3.1,2.9 2,2.4 c 0,0 1.4,2.7 2.2,3.6 0.7,0.9 2.7,3.4 2.7,3.4 l 3.1,2.5 5.3,4.5 2.5,1.8 3.6,2.7 4.3,4 4.3,1.8 1.3,3.1 1.6,5.8 v 4.2 6.3 c 0,0 -0.9,6.7 -0.9,7.2 0,0.5 0.9,7.2 0.9,7.2 l -2.7,5.8 0.4,6.5 -0.7,9.8 -0.4,5.8 c 0,0 0,5.4 0,6.5 0,1.1 -0.7,4.3 -0.7,5.4 0,1.1 -0.4,8.5 -0.4,8.5 l -0.7,7 -0.4,10.6 -2.9,8.3 -0.4,9.1 -0.4,4.7 v 7.2 c 0,0 0,4.7 0,6.2 0,1.4 0.4,10.1 0.4,10.1 0,0 0.4,10.5 0,13.1 -0.4,2.5 -0.4,10.5 -0.4,11.6 0,1.1 0,4.7 0,4.7 l 0.7,3.6 0.4,5.4 c 0,0 0.7,9.4 1.1,10.5 0.4,1.1 -0.7,8.3 -0.7,8.3 l 0.4,4.7 1.4,3 1,2.7 1.3,1.3 c 0,0 1.6,1.4 1.9,1.6 0.3,0.2 1.8,1.2 1.8,1.2 0,0 1.3,0.5 1.6,0.5 0.3,0 1.5,0.2 1.9,0 0.4,-0.2 1,-0.3 1.3,-0.4 0.4,-0.1 1.4,-0.4 1.8,-0.7 0.3,-0.3 0.9,-0.4 1.6,-0.8 0.7,-0.5 1.2,-1.5 1.2,-1.5 l 0.8,-2.1 c 0,0 1,-1.4 1.1,-2.8 0.1,-1.4 0.1,-1.4 0.1,-2.5 -0.1,-1 -0.2,-1 -0.4,-2.2 -0.2,-1.3 -0.6,-2.8 -0.6,-2.8 0,0 -0.4,-1.1 -0.5,-2.5 -0.1,-1.4 0.2,-2.9 0.2,-2.9 0,0 0.1,-7.7 0.2,-7.8 0.2,-0.1 0.6,-5.3 0.6,-5.3 l -0.4,-3.6 -0.5,-3.4 c 0,0 -0.8,-2.8 -0.4,-4.1 0.4,-1.3 0.7,-2.5 0.8,-3.8 0.1,-1.3 0,-2.2 -0.1,-3.6 -0.1,-1.4 -0.6,-3.9 -0.6,-3.9 l -0.7,-3 c 0,0 0,-0.1 -0.1,-0.6 -0.1,-0.5 -1.1,-5.8 -1.1,-5.8 l -0.2,-4.6 -0.1,-8 0.8,-3.8 0.7,-2.4 c 0,0 0.4,-2.6 0.4,-2.8 0.1,-0.2 0.6,-2.5 0.6,-2.8 0,-0.2 -0.1,-8 -0.1,-8 l 0.5,-8.9 c 0,0 0.6,-2.7 0.9,-2.9 0.3,-0.2 1,-3 1,-4 0,-1 0.5,-4.3 0.5,-4.3 0,0 0.1,-3.1 0.1,-3.9 0,-0.8 -0.1,-3.1 -0.1,-4.3 0,-1.2 0,-2.1 0.2,-3.6 0.2,-1.5 0.8,-4 0.8,-4 0,0 0.6,-1.8 0.7,-3.3 0.1,-1.5 0.5,-3.6 0.5,-4 0,-0.5 0,-13.8 0,-13.8 v -9.8 -6.5 -10.3 -4.7 -5.8 l 0.8,-8.7 v -12.7 -4 l 3.1,-3.4 2.2,-3.6 c 0,0 2.4,-2.9 2.9,-3.4 0.5,-0.5 1.8,-2.7 2.7,-3.6 0.9,-0.9 3.4,-3.6 4.9,-5.3 1.4,-1.6 3.6,-3.4 3.6,-3.4 l 2.4,-3.1 3.6,-5.4 c 0,0 1.3,-1.4 2,-2.2 0.7,-0.7 1.3,-1.3 2.5,-2.4 1.2,-1.1 1.8,-1.4 2.9,-2.4 1.1,-1 3.8,-4.9 3.8,-4.9 l 2,-3.4 c 0,0 1.1,-1.6 2.7,-3.8 1.6,-2.2 6.2,-6 6.2,-6 l 4.5,-4 3.7,-3.7 2.7,-4 2.2,-2.8 2.2,-2.2 3.7,-2.5 2.1,-1.9 c 0,0 0.5,-1.1 0.7,-1.4 0.2,-0.3 0.6,-2.5 0.6,-2.5 v -3.6 -3.7000001 l -1.3,-1.4 -2.2,-1.6 -3.4,-0.7 h -2.2 l -2.9,2.1 -4.3,3.3000001 -3.5,2.7 -4.8,4.8 -6,5.8 -5.8,6.5 -3.1,3.5 c 0,0 -3.3,3.4 -3.5,3.9 -0.2,0.5 -2.8,3.6 -2.8,3.6 l -3.1,3.7 -3.5,3.6 -3.4,3.6 -3.5,3.6 -4,4 -5.4,9.1 -3.2,3.9 -3.1,3.2 -3.4,3.3 -3.1,3.4 -1.6,1.4 -1.9,-0.2 c 0,0 -1.3,-1.4 -1.4,-1.6 -0.1,-0.2 -2.4,-2.4 -2.4,-2.4 0,0 -1.4,-2.2 -1.8,-2.6 -0.3,-0.4 -2.8,-3.3 -2.8,-3.3 l -3.1,-2.9 -5,-4.2 -3.7,-3.3 c 0,0 -3.1,-3.3 -3.3,-3.4 -0.2,-0.1 -2.4,-3.5 -2.4,-3.5 l -1.6,-1.1 -6.6,-4.7 -4.1,-4.1 c 0,0 -6.9,-6.7 -7,-7.1 -0.1,-0.4 -2.7,-5.2 -2.7,-5.2 0,0 -4,-4.1 -4.5,-4.7 -0.5,-0.6 -4,-6.2 -4.1,-6.5 -0.1,-0.3 -4.8,-4.7 -5,-5 -0.2,-0.3 -3.3,-5.5 -3.3,-5.5 l -2.5,-3.1 -2.3,-1.2000001 -4.6,-1.9 -2.3,0.3 -3.1,0.3 -2.1,1 -0.9,2.2000001 -0.4,2.3 z"
   id="path885"
   style="fill:#000000;fill-opacity:1" />
  <path
   class="st0"
   d="m 772.4,16.74053 h -14.5 -14.7 l -12.3,2.9 -10.4,2.7 -7.5,3.1 -3.6,2.1 -4.3,2.4 -3.1,4.3 -3.1,4.1 -5.3,7 -3.1,5.3 -2.7,6.5 v 6.3 l -1.7,9.2 v 7.2 l 2.4,6.3 3.6,4.8 2.4,2.4 3.6,4.3 5.3,6.3 2.4,2.7 5.6,6 4.6,5.3 6.2,5.6 4.9,2.7 3.1,2.5 3.3,3.1 2.5,2.7 c 1.1,2.2 2.4,5.8 2.4,5.8 l 3.8,2.5 c 0,0 3.6,3.8 4,4.3 0.4,0.5 2.7,2.5 3.3,2.9 0.5,0.4 2.5,1.4 3.3,2.4 0.7,0.9 2.7,4.2 3.3,4.5 0.5,0.4 1.4,3.1 2.4,4.5 0.9,1.4 5.3,2.4 6.2,3.1 0.9,0.7 5.6,4.7 5.6,4.7 l 2.5,4 3.9,6.2 c 0,0 1.6,3.1 2.5,4 0.9,0.9 2.7,2.9 2.7,2.9 l 3.4,4.5 4.9,4.5 3.1,5.1 3.8,2.5 c 0,0 2.7,0.9 2.9,1.4 0.2,0.5 3.6,5.8 3.6,5.8 l 1.8,4 2.6,4.2 2.2,6.5 2.9,4.3 2.9,3.9 2.7,5.1 4.3,5.5 v 3.2 l 3.4,7 v 10.4 l -2.7,12.1 -4.6,8.7 -2.4,5.1 -6.5,7.5 -4.6,5.1 -5.3,4.6 -6.8,4.8 -4.8,2.9 -4.8,1.2 -5.8,1.9 -4.7,1.4 -6.3,1.4 h -6 -3.9 l -8.2,2.4 h -5.6 -7.7 -5.8 -7.7 -7.5 -8.7 l -12.8,1.7 c -3.1,0.2 -8.2,0 -8.2,0 l -2.4,-2.2 -2.9,-3.1 1,-4.8 4.1,-4.3 4.1,-1 7.7,-0.7 4.3,-1 2.9,0.5 8.5,-0.7 h 9.2 l 24.6,0.2 15.5,-0.5 5.8,-0.7 3.6,-1.4 3.9,-1 3.4,-1.9 8,-3.6 c 0,0 3.1,-2.7 4.3,-3.6 1.2,-1 6.3,-4.6 6.3,-4.6 l 4.3,-4.3 1.4,-2.7 c 0,0 1,-3.9 1.4,-5.1 0.5,-1.2 -0.7,0.5 0.5,-1.2 1.2,-1.7 2.4,-4.8 2.4,-4.8 l 2.2,-5.8 c 0,0 -0.2,-3.9 -0.2,-4.6 0,-0.7 -0.7,-4.8 -0.5,-6 0.2,-1.2 0,-4.6 0,-5.6 0,-1 -2.9,-4.8 -2.9,-4.8 0,0 -2.2,-4.1 -2.4,-5.1 -0.2,-1 -2.9,-6.3 -2.9,-6.3 l -4.1,-6.3 -3.4,-4.3 -2.9,-4.8 c -2.4,-2.4 -8.7,-9.4 -8.7,-9.4 l -5.3,-3.6 c 0,0 -2.4,-4.1 -2.9,-4.8 -0.5,-0.7 -4.6,-5.6 -4.6,-5.6 0,0 -3.1,-3.9 -3.4,-4.8 -0.2,-1 -5.3,-7.2 -5.3,-7.2 l -6.8,-8 -9.4,-6 -7.2,-9.2 -4.2,-7.6 c 0,0 -4.3,-4.7 -4.9,-5.4 -0.5,-0.7 -2.9,-3.8 -2.9,-3.8 0,0 -4.3,-4.7 -5.3,-5.4 -1,-0.7 -5.6,-2.7 -5.6,-2.7 0,0 -2.7,-1.8 -4.2,-2.7 -1.4,-0.9 -5.8,-3.4 -6.5,-4.2 -0.7,-0.7 -4.3,-3.8 -4.9,-4.7 -0.5,-0.9 -3.6,-5.6 -3.6,-5.6 0,0 -1.6,-3.4 -2.2,-4.3 -0.5,-0.9 -3.4,-4.2 -4.2,-5.4 -0.7,-1.3 -3.8,-5.3 -3.8,-5.3 0,0 -2.7,-2.7 -3.1,-3.4 -0.4,-0.7 -3.6,-4.9 -3.6,-4.9 l -4.6,-6.7 c 0,0 -1.5,-4.5 -1.6,-5 -0.1,-0.4 -0.4,-4.8 -0.4,-4.8 l -0.2,-4.4 c 0,0 -0.6,-4.7 -0.5,-5 0.1,-0.3 0.9,-10 0.9,-10 0,0 0.4,-3.3 0.9,-4.5 0.5,-1.2 1.1,-4.2 1.3,-4.8 0.2,-0.7 1,-3.3 1,-3.3 l 3.7,-7.1 4.3,-7.1 2.1,-3.4 4.2,-5.6 c 0,0 2.7,-3 3.1,-3.4 0.4,-0.4 6.4,-4.6 6.4,-4.6 l 4.6,-3.7 5.8,-2.4000001 8.3,-3.2 6.2,-2.2 c 0,0 3.4,-0.7 4.5,-1 1.1,-0.3 5.1,-1.4 6,-1.5 0.8,-0.1 4.3,-1.00000004 4.3,-1.00000004 l 7.4,-0.2 c 0,0 9.1,0.6 9.4,0.5 0.3,-0.1 5.7,-0.7 6,-0.5 0.4,0.2 6.1,0.5 6.1,0.5 l 6.3,1.00000004 4.5,0.9 2.8,2 1.3,1.1 1.8,2 0.8,2 0.3,2.5000001 -0.8,2.6 -1.8,1.8 -2.4,0.8 z"
   id="path887"
   style="fill:#000000;fill-opacity:1" />
  <path
   class="st0"
   d="M 841.7,7.2405299 840.5,23.44053 c 0,0 -0.2,6.3 0,7.2 0.2,0.9 0.6,10.1 0.6,10.1 l 0.7,10.6 v 11.8 36.1 c 0,0 -0.1,10.5 0,11 0.1,0.5 -1.3,8 -1.3,8 l 0.7,14.9 -1.6,9.4 v 7.2 12.4 l -0.9,20.3 -0.5,17.7 v 13.5 l -1.4,17.4 v 14.7 23.3 l -0.6,17.7 v 10.9 l 1.2,4.1 0.5,6.2 1.2,5.7 2.8,3.6 h 2.9 3.5 l 1.8,-2.4 2.4,-3.9 v -9.4 l -0.8,-7.1 -1,-7 -0.2,-9.8 0.2,-12.2 1,-4.7 -0.4,-17.3 1.2,-8.2 v -10.7 -10.7 -7.4 -3.4 l 0.7,-15.9 v -6.5 l 0.6,-14.4 1,-8.8 v -17.9 -12.9 l 1.3,-16.9 v -14.1 -18.6 l -1.7,-16.5 -0.7,-12.7 0.2,-16.2 1.1,-6.4 1.5,-4.9 v -2.3 l -0.5,-7.7 -1.9,-4.3000001 -1.7,-1 -2.2,-1.8 -2.4,0.3 -1.8,-0.3 -1.6,1.3 -1.3,1.3 z"
   id="path889"
   style="fill:#000000;fill-opacity:1" />
  <path
   class="st0"
   d="m 985.3,0.14052986 -9.1,1.10000004 -9.8,1.3 -8.1,2.1 -9.1,1.9 -10,2.9 -8.6,2.2000001 -12.4,4.3 -6.2,3 -6,3.5 -4.8,4.5 -5.6,6.5 -2.5,5 -1.9,3.9 -3.4,6.6 -1.3,4.2 -1.8,5.3 -1.4,7.6 1.3,8 2.3,8.7 1.9,3.7 2.4,4.2 4.6,6.2 3.6,3.4 4.5,5.3 3.8,5.3 4.9,6 c 0,0 1.6,5.4 1.8,6 0.2,0.5 3.6,5.8 3.6,5.8 l 4.2,3.4 4.7,5.3 5.3,4.2 4.9,4.9 4.2,5.3 4.7,4.5 3.6,4 2.5,4.5 3.1,3.4 5.6,3.3 4.7,4 4.3,3.9 5.4,4.5 5.1,5.1 3.6,3.8 3.4,4.5 1.4,3.8 1.6,3.3 2.7,2.2 2,2.7 3.6,2.9 4.9,6.3 3.1,6.5 3.6,5.8 2.7,7.8 2.5,5.3 2,6 0.7,5.6 1.1,4.3 0.9,5.3 0.9,8.7 v 6.2 l -2.9,6.7 -4.5,5.1 -6,3.3 -7.2,3.4 -6.9,0.9 -8.2,0.9 h -6.2 l -5.1,0.7 -5.4,1.1 h -17.9 -15.6 -12.7 l -4.2,0.7 h -3.4 -4.3 l -3.8,-1.6 -4.2,0.2 -5.1,1.4 -2.2,3.3 c 0,0 -0.4,2.7 -0.4,3.3 0,0.5 0.5,3.8 0.5,3.8 l 4.7,2 4,0.7 h 6.7 5.4 l 6,-1.1 7.2,-0.7 8.5,-0.9 22.6,-0.2 h 14.7 l 3.4,0.7 8.9,-0.2 6.7,0.5 5.1,-0.9 c 0,0 2.4,-0.9 3.3,-1.1 0.9,-0.2 4.2,-1.4 4.2,-1.4 l 6,-1.4 4.7,-1.4 3.4,-3.1 4.7,-2.5 2.2,-2.5 2.5,-3.6 c 0,0 0.5,-2.2 0.9,-2.9 0.4,-0.7 2.5,-4.5 2.7,-5.3 0.2,-0.8 0.7,-2.4 0.9,-3.6 0.2,-1.3 1.1,-5.6 1.1,-6.2 0,-0.6 0.5,-6.3 0.5,-6.3 l -1.6,-4.9 -1.6,-5.8 -0.7,-3.4 c 0,0 -0.5,-5.1 -0.5,-6 0,-0.9 -0.2,-7.4 -0.2,-7.4 l -2.2,-9.2 -6,-11.4 c 0,0 -2.7,-6.5 -2.9,-7.1 -0.2,-0.5 -2.5,-5.3 -3.1,-5.8 -0.5,-0.5 -4.2,-4.9 -4.2,-4.9 l -4.2,-4 -4.7,-5.6 -2.4,-2.5 -4,-3.1 -2.4,-4 -3.6,-6 -4.3,-5 -4.2,-5.5 -7.6,-6.3 -7,-4.7 -5.4,-5.6 c 0,0 -4.6,-4.5 -5.1,-5.2 -0.5,-0.7 -4.2,-6.5 -4.2,-6.5 l -3.1,-3.7 -5.9,-6.5 -5.3,-4.8 -4.6,-4.1 -4.3,-4.8 c 0,0 -3.5,-4 -3.6,-4.3 -0.1,-0.3 -3.1,-4.2 -3.4,-4.8 -0.2,-0.6 -3,-6.4 -3,-6.4 l -3.1,-5 -6.8,-5.6 -3.5,-4.1 -4.3,-7.7 -2.2,-7.6 -1,-8.6 2.4,-7 c 0,0 3.4,-6.2 3.9,-6.6 0.5,-0.5 3.1,-6.4 3.1,-6.4 0,0 5.1,-3.7 5.4,-6.3 0.4,-2.5 5.2,-5.3 5.2,-5.3 l 5.5,-3.6 3.4,-1.4 3.4,-0.3 c 0,0 3.3,0.1 3.8,-0.1 0.5,-0.2 4.2,-0.9 4.8,-1.2 0.6,-0.3 3.1,-0.9 4.3,-1.6 1.2,-0.7 6.8,-2.2 6.8,-2.2 l 4.4,-1.5 c 0,0 4.1,-0.7 5.3,-1 1.2,-0.3 7.2,-0.9 7.2,-0.9 0,0 1.9,-0.5 2.4,-0.5 0.5,0 5.7,-0.6 5.7,-0.6 l 4.2,-0.5 3.5,-0.5 2.4,-0.7 c 0,0 4.3,-0.8 4.9,-1 0.6,-0.2 2,-0.4 2.4,-0.5 0.5,-0.2 1.3,-0.5 1.7,-1.1 0.4,-0.6 0.8,-2.4 0.9,-3.5000001 0.1,-1.1 0,-2.6 -0.3,-3.2 -0.3,-0.6 -1.3,-2 -1.3,-2 0,0 -0.7,-1 -1.1,-1.4 -0.4,-0.5 -2,-1 -2.4,-1.3 -0.4,-0.3 -1.9,-0.70000004 -1.9,-0.70000004 l -2.1,-0.4 h -2.1 -0.6 z"
   id="path891"
   style="fill:#000000;fill-opacity:1" />
</svg>
